<?xml version="1.0" encoding="UTF-8" standalone="no"?>
<svg width="128" height="128" viewBox="0 0 128 128" xmlns="http://www.w3.org/2000/svg">
  <defs>
    <linearGradient id="bubbleGradient" x1="0%" y1="0%" x2="100%" y2="100%">
      <stop offset="0%" stop-color="#2ea44f" />
      <stop offset="100%" stop-color="#1f8a3d" />
    </linearGradient>
  </defs>
  <rect width="128" height="128" rx="24" fill="#f6f8fa" />
  
  <!-- Comment Bubble -->
  <path d="M30 34h68a8 8 0 0 1 8 8v44a8 8 0 0 1-8 8H78l-14 14-14-14H30a8 8 0 0 1-8-8V42a8 8 0 0 1 8-8z" fill="url(#bubbleGradient)" />
  
  <!-- Sparkles -->
  <g fill="#ffdf5d">
    <!-- Big sparkle -->
    <path d="M40 46l2.5-7.5L50 36l-7.5-2.5L40 26l-2.5 7.5L30 36l7.5 2.5z" />
    <!-- Small sparkle 1 -->
    <path d="M90 60l1.5-4.5L96 54l-4.5-1.5L90 48l-1.5 4.5L84 54l4.5 1.5z" />
    <!-- Small sparkle 2 -->
    <path d="M70 74l1.5-4.5L76 68l-4.5-1.5L70 62l-1.5 4.5L64 68l4.5 1.5z" />
  </g>
  
  <!-- Lines representing text -->
  <rect x="44" y="46" width="44" height="4" rx="2" fill="white" />
  <rect x="44" y="58" width="36" height="4" rx="2" fill="white" />
  <rect x="44" y="70" width="28" height="4" rx="2" fill="white" />
</svg> 